<svg id="Layer_1" data-name="Layer 1" xmlns="http://www.w3.org/2000/svg" viewBox="0 0 486.61 486.61"><circle cx="243.3" cy="243.3" r="243.3" style="fill:#0e84c7"/><path d="M218.1,7.16C179.25,11.21,133.22,30.06,111,50.88l-5.2,5,6.94-5.21c20.7-15.26,46.37-27.29,72.74-34.34,34.12-9.14,74-9.26,107.9-.47,50.31,13.07,96.1,43.72,129,86.28,22,28.45,33.54,55.16,42.09,97.14,3.59,17.7,5,51.93,2.89,69.74-5.89,50.07-25.67,95.18-56.89,129.52-32.39,35.62-75.75,60.6-121.9,69.85-85.35,17.12-167.34-13.64-221.69-83.26-19.66-25.21-36.32-59.56-44.3-91.25-8.09-32.15-8.56-67-1.5-101.19C28,158.89,45.56,120.26,66,94c6.7-8.44,5.78-9.6-1.28-1.73-23.59,26.71-45,76.9-51,119.46-2.43,17.7-2,49.85,1,67.08a262.51,262.51,0,0,0,34.93,90.32c17.46,28.1,44.76,55.62,73.78,74.48,12,7.74,37,19.54,51.24,24.17,39.78,12.95,85,14,128.25,3,30.88-7.86,66.38-27.06,92.17-49.61,45.22-39.67,72.51-95.29,77.95-158.55,4.16-49.85-9.83-107-35.85-146.64C387.64,40.81,302.18-1.74,218.1,7.16Z" style="fill:#fff"/><path d="M223.31,20.92a196.28,196.28,0,0,0-106,42.33c-28.91,23-51.47,50.77-65.92,80.84-22.09,46-27.87,93.79-17.7,144.56,8.79,43.94,37,91.82,71.59,121.43,12.49,10.75,33.08,24.51,46.49,31,31.8,15.5,59.56,21.28,97,20.12,29.14-.81,47.88-4.74,73.78-15,10.53-4.28,34.81-17.23,34.81-18.74,0-.23-6.94,3.13-15.26,7.52-31.69,16.31-63.61,24.17-98.3,24.29C187.57,459.34,136.92,438,96,396.89c-21.86-22-42.56-54.81-52.39-82.92-4.51-13-8.21-28.56-7.4-30.76.35-.81.69-.46.69.93.23,6.94,12,42.09,13.65,40.59.23-.23-.58-2.89-1.85-5.78-3-6.94-10.18-31.11-11.22-37.82-.81-4.63-1-4.86-1.85-2.31-.58,1.85-.69.81-.23-2.89.46-4.4.23-5.32-.69-4.05s-1.16.58-.58-3.24c.46-2.66.34-4.86-.23-4.86-1.51,0-1.85-31.8-.35-45.1a198.16,198.16,0,0,1,9.83-44.52c4.28-13,17.58-42.22,19.2-42.22.46,0-2.2,6.37-5.9,14.11-6.36,13.53-11.57,27.87-13.19,36.78-.46,2.2,1.74-2.78,4.86-11,8.56-22.9,18.51-41.75,30.76-58.4,7.29-9.94,10.53-13.65,22.44-25.79,6.13-6.13,10.29-11.22,9.37-11.22-4.28,0-36.2,36.09-42.21,47.65-.93,1.74-2.2,3.24-2.78,3.24-1.5,0,3.24-7.52,12-19.08,9.13-12,30.76-34.35,32.61-33.66.81.35,2.31-.46,3.47-1.73s1.5-2.2,1-2.2,0-1,1.16-2.31c1.62-1.85,2.31-2,3.12-.93s.93,1,.93-.46c0-2,13.53-12.49,16.07-12.49a1.28,1.28,0,0,0,1.27-1.27c0-.58.58-.81,1.16-.46s1.16.11,1.16-.58.46-1,1-.58a1.3,1.3,0,0,0,1.73-.46,9,9,0,0,1,4.16-1.62c2-.46,3.47-1.51,3.47-2.43s.7-1.5,1.51-1.16,4.85-1,8.9-2.89,6.71-3.58,5.78-3.58C163.86,39.2,175,35,188,31.22c37-10.64,79-9.6,117.16,3.12,40.94,13.53,73.89,36,101.65,69.27a220.77,220.77,0,0,1,44.76,90.21c1.5,6.36,2.77,10.4,2.77,8.9.23-4.51-4.39-23.82-8.44-35.73-10.29-30.07-24.52-52.86-48-77.14C373.07,64.41,348.44,47.64,318,35.49A214.41,214.41,0,0,0,223.31,20.92ZM114.48,71.11a7,7,0,0,1-2,2c-1.85,1.5-2,1.39-.47-.46S114.48,70.19,114.48,71.11ZM65.33,129.63a2.68,2.68,0,0,1-1.85,1.16c-.69,0-.81-.58-.46-1.16a2.36,2.36,0,0,1,1.85-1.15C65.56,128.48,65.68,128.94,65.33,129.63Z" style="fill:#fff"/><path d="M224.35,33.3c-17.81,1.62-37.7,6.13-52.62,11.91-18.27,7-40.71,20.7-49.73,30.18l-4.63,4.86,5.21-4c7.63-6,26.13-17.92,34-22,17.81-9,40.71-15.73,63.49-18.62,6.82-.93,12.72-2,13.18-2.43C234,32.49,232.21,32.49,224.35,33.3Z" style="fill:#fff"/><path d="M285.06,39.43c1.28.57,9.14,3.7,17.35,6.94,23.82,9.36,45.33,22.89,53.2,33.42,2.2,3.12,4.86,6,5.78,6.36,2,.69,2.31,12,.58,25.56L361,119.8l4.17,3.82c5.09,4.62,8.09,3.24,3.47-1.74-2.89-3.23-2.89-3.23-2.32-19.77l.58-16.54-7.52-7.4c-13.53-13.3-39.55-28.45-61.06-35.62C288.88,39.43,281,37.58,285.06,39.43Z" style="fill:#fff"/><path d="M204.69,52.84a43.83,43.83,0,0,0-9,3.47c-1.51,1-5.55,2.08-8.91,2.43-7.17.69-13.64,5-11.33,7.4,1,1,2.2.69,5-1.73,4-3.36,7.29-4,6.25-1.28s4,2.09,8.55-1.27c4.63-3.58,12.73-6.24,18.86-6.24,3.93,0,6.82-1.62,5.32-3S210.35,51.22,204.69,52.84Z" style="fill:#fff"/><path d="M240.54,53.77c0,.23,4.86,1,10.75,1.73,10,1.27,24.06,4.4,20.7,4.63-.8.11-8.32-.7-16.65-1.74-19.66-2.43-41.63-2-44.41.93-2,1.85-2,2.08.12,4.39,1.85,2.08,3.47,2.32,14.34,2.32,8.33,0,11.68-.35,10.52-1.16-.92-.58-5.32-1.16-9.83-1.16-10.75,0-13.64-1.85-4.74-2.89,7.29-.92,17.12-.35,42.1,2.55,11.45,1.38,16.77,1.61,17.69.69,3.12-3.12-7.28-7.52-23.24-9.6C249,53.3,240.54,53,240.54,53.77Z" style="fill:#fff"/><path d="M162.48,63.94c-5.55,2-19.09,10.53-19.09,12.15,0,2.43,2.55,1.73,8.1-2.08,5.32-3.59,13.3-8,14.46-8,.34,0-.47,1-1.74,2.31-4.74,4.74-1,5.78,5.55,1.39,2.89-2,2.89-2,1.39-5C169.76,62.32,167.68,62.09,162.48,63.94Z" style="fill:#fff"/><path d="M325,69.73c12.14,9.25,13.76,11.1,11.45,12.6a9.16,9.16,0,0,1-4.16,1c-2.89,0-3.47,2.2-1.27,4.4s5.89,1.73,8.09-.81a11.53,11.53,0,0,1,3.35-2.78c2.32-.81-6-9.13-15.26-15.26C315.36,60.94,314.09,61.4,325,69.73Z" style="fill:#fff"/><path d="M199.25,65.91c-2.31,2-5.43,10.06-4.39,11.68.92,1.39-9.25,10.06-12.72,11-4.74,1-6.36,2.66-6.36,6.24l-.12,3L174,94.71c-1.62-2.9-2.08-3-8.9-2.66-7.75.57-9.49,1.5-8.33,4.51.69,1.73,1.73,2,6.94,1.27,5-.58,6.36-.35,6.94,1,.34.92,2.31,2.2,4.28,2.89,4.85,1.74,7.17-.35,5.55-5-1-2.55-.93-3.24.81-3.7,6.24-2.08,8.56-3.47,13.87-8.56,6-5.78,7.29-8.67,4.63-11.33-1-1-1-1.39.12-1.39,2,0,4.62-3.47,4.74-6.13S202.49,63.25,199.25,65.91Z" style="fill:#fff"/><path d="M257.31,71.35c-6.94,3.58-8.68,5.55-8.68,10.06a14.21,14.21,0,0,1-2.89,7.28c-1.62,2.08-2.89,5.09-2.89,6.71a7.09,7.09,0,0,0,2.89,5.09c3.36,2.66,3.59,3.7,1,3.7-1.62,0-1.85.81-1.27,4.51l.58,4.51-3.7-.58c-2.55-.35-4.4,0-5.55,1.27-1.62,1.62-2,1.51-3.59-.23-2.31-2.54-7.75-3.12-7.75-.92,0,2,6.48,7.63,8.79,7.63a2.78,2.78,0,0,0,2.32-1.73c.92-2.32,4.74-2.2,6,.11,1.5,2.78,6.48,1.62,6.94-1.62.23-1.39-.12-2.54-.69-2.54-.81,0-.7-1.51.11-4,2-6.59,6.48-5.09,12.38,4a38.42,38.42,0,0,0,7.17,8.32c2,1.28,4.51,4.75,5.78,7.64l2.31,5.09-3.24,7.17-3.24,7.05-4.39-4.28c-2.43-2.43-4.39-5-4.39-5.78,0-2.43-8-10.18-10.53-10.18a2,2,0,0,1-2.2-2.2c0-2.77-4.16-5.89-7.86-5.89-2.66,0-2.78.23-2.08,5.08.81,5.56,0,6.83-4.74,7.06-3.13.11-3.36-.81-.7-4.86,2-2.89,1.85-3-1.85-6.36-2.08-1.85-4.39-3.12-5.09-2.89s-2,2.43-2.66,4.86c-.69,2.66-1.5,3.93-2.08,3.12s.12-3.24,1.16-5.44c2.54-5.43.81-7.51-3-3.46-3.47,3.7-4.16,3.58-4.05-.12,0-2.66-.46-3.12-3.46-3.24a7.91,7.91,0,0,0-5.67,2.08c-2.2,2.2-2.2,2.2.46,4.4a9.2,9.2,0,0,0,4.51,2.08c2,0,4.74,2.2,8.44,6.82,2.89,3.47,4.86,3,7.29-2,1.16-2.32,2.31-3.7,2.54-2.89s-.34,2.89-1.27,4.85c-2.89,5.44-2.31,6.94,3.24,9.49,5.78,2.54,8.79,2,8.79-1.74,0-4.86,9.13-6.94,14.45-3.47,3.13,2.08,3.59,3.93,1.62,5.9-1,1-2,.69-3.58-1.5-1.27-1.51-3.47-2.78-5-2.78-3.13,0-4.86,1.74-2.66,2.78,1,.46.92,1-.7,2.08-6.94,4.85-7.75,5.9-7.4,9.37.46,4.39,3.24,5.66,3.24,1.5,0-1.62.58-3,1.27-3,1.62,0,13.3,9.14,18.27,14.23,2.2,2.31,5.32,7.51,7.06,11.68l3.24,7.51-5.67,1.39c-3.12.81-5.67,1.85-5.67,2.31a10,10,0,0,0,2.2,3.47l2.08,2.66,3.82-3.12c2.08-1.73,3.81-3.12,3.93-2.89a49.27,49.27,0,0,1-.23,6.36c-.46,6.71-2.43,8.33-6.59,5.67a20.6,20.6,0,0,1-5.21-5.9c-2.66-4.28-5.66-5.67-11.1-5-2.43.23-3.47,1-3.7,3-.46,3-4.86,6-4.86,3.24a2.58,2.58,0,0,1,1.51-2.2c.92-.34.69-.81-.58-1.38-4.28-1.74-13.53,6.24-11.34,9.83.81,1.38,1.51,1.27,4.05-1.16,2.2-2.08,3.24-2.43,4.28-1.39,3.12,3.13,12.49.12,12.49-3.93a1.69,1.69,0,0,1,1.74-1.62c.92,0,1.73.46,1.73.93s1.85,3.12,4.05,5.66c5.09,5.9,9.13,7.17,13.41,3.94l3.24-2.43,3.47,3c8,6.71,2.31,17.12-12.61,22.9-7.74,3.12-12.72,7.29-12.72,10.76,0,.92,1.39,4,3,6.94,2.43,3.93,3.35,7.51,4.05,15,1.15,12.61,3.35,16,18,26.48,20,14.34,20.58,14.92,20.58,17.81,0,3.47,2.43,4.28,3.94,1.39,2.08-3.82-.47-8.56-6.6-12.37-3-1.85-8.32-5.67-11.79-8.33-18-14.11-19.66-16.42-19.66-27.29a25.9,25.9,0,0,0-3-12.15c-4.39-8.78-3.58-10.52,7.06-14.45,10.29-3.82,16.07-9,17.92-15.85,1.62-6.12.81-8.67-5.32-15.26-4.86-5.21-5-5.55-4.28-11.1.58-4.86.23-6.25-2.08-9.37-3-4.16-3.24-7.52-.81-20.59,1.16-6.36,2.66-10.87,4.74-13.87,3-4.4,3.13-4.63,1.51-10.64A18.86,18.86,0,0,0,273.5,123c-3.59-3.35-4.16-4.39-3.47-7.05,1.73-6.83,1.85-12.38.35-14.58-1.51-1.85-1.62-1.62-1.16,2.09.46,4-1.5,11.1-3.12,11.1a29,29,0,0,1-3.94-4.74c-1.73-2.55-4.16-5-5.31-5.44a31.75,31.75,0,0,1-6.48-4.74c-4.28-3.7-4.4-4.05-2.78-6.82,2.89-5.09,5-5.67,9.14-2.2a19.18,19.18,0,0,0,6.71,3.81c4.85.93,6.36,2.09,10.41,7.52,9.25,12.38,8.55,11.8,14.68,12,3.24,0,6.94.69,8.33,1.5,3.58,2,6.59,1.74,8.79-.69,2.54-2.89,2.43-5.09-.46-8.79-1.74-2.2-2.2-3.93-1.62-6.36.46-2.2.11-3.93-1.16-5.09-1-1-2.78-4.16-4.05-6.82-2.43-5.55-11.33-14.69-17-17.58S264.36,67.88,257.31,71.35ZM278.12,73a3.23,3.23,0,0,0,2.32,1.16c2.43,0,11.1,9.83,14,15.73,2.31,4.86,2.31,5.09.35,5.09-3.7,0-2.43,3.47,3,8.79,2.9,2.77,5.21,5.55,5.21,6.24,0,1.85-3.24,2.78-5,1.39-.81-.69-4.28-1.39-7.75-1.62-5.9-.35-6.48-.58-10.06-5.55-6.71-9.37-9-11.68-13.07-13.07-5.09-1.85-13.53-7.4-14.34-9.6a3.54,3.54,0,0,1,3.35-5.09c1.5,0,3.12-.57,3.47-1.27A8.93,8.93,0,0,1,263,73C266.33,71.58,277.31,71.58,278.12,73Zm21.4,25.45c0,.57-1,1.15-2.2,1.15a4.05,4.05,0,0,1-3-1.15c-.47-.7.57-1.16,2.19-1.16S299.52,97.71,299.52,98.41ZM244,127.9c0,.92-.23,1.73-.46,1.73s-.7-.81-1.16-1.73-.12-1.74.46-1.74S244,127,244,127.9Zm8.67,18c.58,1.85,1.39,2.2,4.05,1.62,4.74-1,11.56,5.55,11.56,11.45,0,4.51-1.15,5.2-3.58,2.19-1.85-2.19-15.61-12.72-17.58-13.41-.92-.35-.58-1.16.93-2.43C251.06,143.05,251.76,143.05,252.68,145.94Z" style="fill:#fff"/><path d="M231.06,85.57c-4.86,1-7.87,3.12-7.87,5.44,0,1.85,1.27,2.08,3,.69,2-1.74,9.13-3.59,13-3.47,4.4.12,6.13-1,3.7-2.54C240.89,84.41,237.3,84.41,231.06,85.57Z" style="fill:#fff"/><path d="M146.05,88.11c-4.16,2.66-5.08,5.67-1.73,5.67,2.43.12,15.27-6,15.27-7.28C159.59,84.64,149.64,85.8,146.05,88.11Z" style="fill:#fff"/><path d="M375.73,89.15a93.56,93.56,0,0,1,10.76,26c2.66,10.29,3.93,12.6,6.59,11.56a50.78,50.78,0,0,1,7.05-1.73,45.18,45.18,0,0,0,6.94-1.74c1.27-.46,3.12,1,5.78,4.74,2.2,3,4.75,6.48,5.67,7.64s1.27,2.89.81,3.81c-.92,2.55-4.74.35-7.05-3.93-2.55-5.09-5-5.32-7.64-.69-1.38,2.42-3.35,4-4.62,4-2.89,0-2.78,2,.11,3.7a4.87,4.87,0,0,1,2.32,3.47,3.57,3.57,0,0,0,1.15,2.66,3,3,0,0,1,1.16,2.55c0,1.5-.35,1.5-1.74.34-3.35-2.77-4.39.47-1.15,3.47,2.77,2.66,2.89,2.66,5.2.58s2.43-2.08,5,.23a26.74,26.74,0,0,0,5,3.59c1.27.69,3,3.35,3.93,5.9,2.08,6.59,5,8.9,9,7.51,4.51-1.62,4.16-4.62-.46-4.16-3,.23-3.82-.12-4.4-2.54-.34-1.51-1-3.7-1.39-4.75-.57-1.5-.23-1.73,2.32-1,1.62.35,3,.35,3-.11,0-1.62-6.12-12.14-7.17-12.14-1.27,0-1.15,3.12.24,5.89,1,1.74.81,2.2-.81,2.2-3.47,0-7.41-3.47-7.17-6.13.23-4.39,0-5.32-3.7-9.48-4.75-5.32-2.9-5.21,2.66.23,4.39,4.28,4.51,4.39,7.74,2.43l3.36-1.85,5.9,13.18a265.65,265.65,0,0,1,9.71,24.75c2,6.36,4.05,11.56,4.39,11.56.93,0-1.61-11.56-4.27-20.23-6.25-19.43-27.18-53.66-41.06-67.08-6.82-6.59-6.59-5.67,1.62,5.67,6.13,8.44,6.24,10.52,1,12.37-2.31.93-2.43.81-1.39-1.39,1.16-2,.35-3.23-6.36-10.06-4.16-4.16-9-10.17-10.64-13.07a41.56,41.56,0,0,0-6.47-8.78l-3.59-3.24ZM394.58,116c2.08,3.12,2.2,3.58.58,5.2-2.31,2.43-3.82,1.16-4.74-3.82-.46-2.19-1.16-5-1.51-6-.69-1.74-.57-1.74,1.28-.35A41.29,41.29,0,0,1,394.58,116Zm13.07,25.21c-.46.69-.12,2,.58,2.89,1.85,2.31.35,2.19-1.85,0-1.74-1.74-1.27-4.05.81-4.05C407.88,140,408,140.62,407.65,141.2Z" style="fill:#fff"/><path d="M214.75,95.75c-4.4.69-3.24,3.35,1.39,2.89,2.54-.12,3.58.23,3.58,1.5,0,2.31,4.17,2.2,5.09-.11C226.78,95.05,224.93,94.24,214.75,95.75Z" style="fill:#fff"/><path d="M198,108c-2.89,1.27-2.89,2.89,0,4.62,2.43,1.62,5.55.23,5.55-2.54S201.33,106.5,198,108Z" style="fill:#fff"/><path d="M198.79,122.69a17.2,17.2,0,0,0-3.93,4.17L192.78,130l3.35-2.31a26.52,26.52,0,0,1,5.44-3c2.31-.81,2.66-3.12.57-3.12A8.85,8.85,0,0,0,198.79,122.69Z" style="fill:#fff"/><path d="M146.05,125.58c-2.08.93-7.4,3.7-11.91,6.36l-8.21,4.75-3.81-2.32a18,18,0,0,0-4.63-2.43c-2,0-.23,3.47,3.35,6.94l4,3.94,7.17-1.62c11.57-2.43,16-2,19.66,2.19,2.78,3.13,3.24,4.63,3.24,10.3,0,4.16-.69,7.63-1.74,9-2.89,3.81-2.08,7.75,2.43,12.14,2.43,2.43,5,3.82,6.36,3.59,2.32-.35,2.32-.35-.23,4.62a73.61,73.61,0,0,1-5.32,8.67c-5.32,7.06-7.75,20.36-4.85,27.76,1.85,5.09,5.66,8.44,10.4,9.14l4.17.69.58,11.45c.69,14.8,3.58,20.93,11.91,25.56,3.24,1.73,6.7,3.24,7.86,3.24,1.39,0,2,.92,2,3.7,0,4.51,5.43,13.06,12.26,19.43,5.66,5.2,17.92,11.56,22.43,11.56,3.59,0,4.63.81,7.87,5.32,1.5,2.2,4.85,4.63,8.55,6.13,3.36,1.39,6.83,2.89,7.64,3.35,2.42,1.27,3.12,48.81.81,61.53a135.27,135.27,0,0,0-1.74,18.73c0,8.56.12,9,4.05,13.19l4,4.28,10.75-.7c11-.81,25.56-3,24.75-3.82-.23-.34-4.05,0-8.44.7a145.76,145.76,0,0,1-15.61,1.16h-7.75l-.7-6.13c-1-8,2.43-18.16,6.94-20.59,3.47-1.73,7.75-8.67,10.53-16.65,1-3.13,3.12-6.71,4.62-8,2-1.85,3.12-4.86,4.4-11.57.92-5,1.85-9.13,2-9.25,5.55-2.08,8.56-6.48,11.34-16.54,3.58-13.06,2.89-17.46-3.13-19.77-3.35-1.39-22.78-6-24.86-6-3.35,0,3.7,4.86,9.37,6.48,16.77,4.63,15.73,4.05,15.61,9.14-.12,6-3.47,17.23-5.78,19.54a6.89,6.89,0,0,1-4.4,1.85c-2.43,0-2.77.7-3.47,7.17-1.15,10.29-3.12,17.12-4,14.46-1.16-3-3-.58-4.75,6.13-2.31,8.67-6.82,17-10.87,20.12-4.28,3.24-7.86,11.68-7.86,18.73,0,2.09-.46,3.71-1,3.36-2.32-1.51-2.43-10.06-.46-24.75,1.61-12,2-19.54,1.38-33.42-.46-10.76-.23-20.13.47-23.48,1.61-7.52.23-9.71-7.75-12.26-3.59-1-7.64-3.24-9-4.74s-3.47-3.93-4.74-5.43a15.2,15.2,0,0,0-7.41-3.36c-10.17-1.62-23.82-11.45-28.56-20.58-1.39-2.66-5-13.07-5.09-14.46,0-.23,1.73-1,3.93-2,5.09-2.08,7.64-7.05,7.64-14.57,0-10.29,4.51-15,14.45-15,2.55,0,4.63-1.16,7.52-4.05s5.43-4.28,10.06-5.2a26.92,26.92,0,0,0,9.71-4.28c4.17-3.59,3.7-4.63-1.15-2.2-2,1-6.71,2.2-10.64,2.66-6.13.58-7.4,1.16-10.06,4.63-2.66,3.12-3.94,3.81-7.75,3.81-10.64,0-16.77,6.83-16.77,18.62,0,7.17-3,12.61-6.94,12.61a7.06,7.06,0,0,0-3.93,1.73c-2.66,2.66-5.21,2.08-9.37-2.08-5-5-6.36-10.41-6.36-24.17,0-6.13-.46-11.45-1-11.8s-2.54,0-4.51.7c-3,1.15-3.93,1-5.9-.7-5.67-5.08-6-19.08-.58-26.36a126.23,126.23,0,0,0,7.4-13.07c5.67-11.22,5.79-15.15.35-18.51-2.89-1.73-3.7-3.12-3.82-5.78a12.55,12.55,0,0,0-1.5-5.78,30.09,30.09,0,0,1-2.89-7.06,18.76,18.76,0,0,0-4.39-7.51c-2.55-2.43-4.05-2.78-11-2.78-9,0-8.91-.58,1.5-5.9,9.25-4.74,14-3.35,19.32,5.56,2.19,3.7,3.23,4.27,8.21,5,3.12.46,7.05,1.85,8.67,3.12,2.31,1.74,3.82,2.08,7.86,1.5a39.78,39.78,0,0,1,11.57.47c7.52,1.38,36.66,14.34,39.67,17.58,2.08,2.31,5.66,2.89,6.7,1.15.81-1.27-3.58-7.05-5.43-7.05-.7,0-8.56-3.47-17.46-7.75-15-7.06-17-7.75-25.56-8.21-6-.35-10-1.16-11.22-2.2a5.06,5.06,0,0,0-4.28-1.16c-4.16,1-13.07-2-15.61-5.32-2.08-2.89-2.2-3.23-.35-5.2,1-1.16,1.62-2.54,1.16-2.89C166.64,123.16,149.76,124,146.05,125.58Zm15.27,35.51c-.46,1.39.46,3.24,2.89,5.66,2.78,2.9,3.24,3.94,2.2,5.21-1.85,2.31-4.86,2-7.87-.81-1.85-1.74-2.42-3.12-1.85-5,.47-1.28,1.39-4.63,2.09-7.41,1.15-4.16,1.5-4.51,2.19-2.42A8.36,8.36,0,0,1,161.32,161.09Z" style="fill:#fff"/><path d="M210.47,126.74c0,.93.58,1.74,1.16,1.74a1.06,1.06,0,0,1,1.15,1c0,2.08-6.59,2-9.25-.12-1.85-1.5-3.12-1.73-4.62-.92-3,1.61-3.47,2.66-2.66,5.55s5,4.39,8.21,2.66c1.73-.93,2.66-.7,4.39,1.15,2.08,2.32,2.08,2.32,4.63-.92,3-3.59,3.35-6.25,1.62-9.72C213.59,124.54,210.47,124.2,210.47,126.74Z" style="fill:#fff"/><path d="M356.88,128.36c-1.85,2.08-1.85,2.43-.12,5.9,1.05,2,1.62,4.39,1.28,5.2-1.62,4.28,3,12.14,7.28,12.14,1.85,0,7.06-8.32,7.06-11.21C372.38,130.09,362.32,122.35,356.88,128.36Zm8,3.58c2.08,2.2,2,2.32-.69,2.32-2.89,0-5.67-1.85-5.67-3.7S362.78,129.63,364.86,131.94Zm4.51,6.71c.69,1.16-4.39,6-6.24,6-.7,0-1.16-1.62-1.16-3.47,0-3.13.35-3.47,3.35-3.47C367.29,137.73,369,138.19,369.37,138.65Z" style="fill:#fff"/><path d="M385.1,128.36a12.18,12.18,0,0,0,.69,11.45c1.39,2.08,2.2,2.31,4.17,1.27,2.31-1.27,2.31-1.27-.24-3-2.19-1.5-2.42-2.42-1.73-6.82C388.8,125.82,387.3,124.43,385.1,128.36Z" style="fill:#fff"/><path d="M212.78,139.46c-1.85,2.31-.57,3.82,4.05,4.74,2.31.35,4.4,1.16,4.74,1.74,1.16,1.85,3.82,1,4.51-1.27.93-3-1.38-6-4.16-5.21a2.55,2.55,0,0,1-2.78-.58C218.1,137.15,214.4,137.5,212.78,139.46Z" style="fill:#fff"/><path d="M385.45,146.86a17,17,0,0,0-4.51,6.36c-.58,2.43-1.62,3-5.79,3.7-3.47.47-5.66.24-6.82-.69s-2.08-1.16-2.54-.69c-1.16,1,3.23,5.32,5.55,5.32a14,14,0,0,1,5.08,1.38l2.9,1.28-2.66,3.58c-3.7,4.86-4.4,7.17-3.24,10.29,1.39,3.59.35,5-4.17,6-5.43,1.15-7.28,4.39-7.28,13.07,0,9.59,2.2,14.68,6.59,15.61s10.06,5.55,11.91,9.94a11.65,11.65,0,0,0,4,5.21c2,1.27,2.78,3.12,3.12,7.4.58,5.67,8,23.13,10.64,24.75a8.6,8.6,0,0,0,3.93.92c1.39,0,4.63,1.28,7.06,2.89,3.58,2.2,4.74,2.55,5.78,1.28,1.39-1.62-.46-4.17-3-4.17-.92,0-4.16-1.27-7.28-2.89-4.16-2.08-5.78-3.58-5.78-5.32a11.93,11.93,0,0,0-2.43-5.78c-1.27-1.85-2.08-3.35-1.74-3.35s-.34-1-1.62-2.32c-1.62-1.62-2.31-3.81-2.31-7.63,0-4.28-.58-5.78-3.35-8.33a28.83,28.83,0,0,1-5.21-6.82,18.76,18.76,0,0,0-4.51-5.78c-1.5-1.16-2.54-2.78-2.19-3.7s-.24-1.27-2-.7c-5.09,1.62-6.82-.11-7.63-8-1-9,.34-11.91,5.78-13,5.09-.92,6.59-3.58,5.67-9.71-.7-4.4-.47-5.21,3.23-9,5.79-6.25,6.94-8.1,6.13-9.49-.46-.81-1.38-.81-2.89,0s-2.43.81-2.89,0c-.35-.57-.23-1.15.23-1.15s2-1.62,3.12-3.47c2.09-3.7,4.75-3.59,3.82.11-.81,2.89.81,3.7,5.09,2.78l3.58-.81-2.66-2.78a11.49,11.49,0,0,1-2.66-5.78C391.46,143.05,389.72,142.93,385.45,146.86Z" style="fill:#fff"/><path d="M289.69,176c12.84,7.51,33.07,17.34,34.46,16.88s-39.67-21.63-41.63-21.63C281.94,171.26,285.29,173.46,289.69,176Z" style="fill:#fff"/><path d="M433.32,183.18c.7,3.7-3.23,7.17-6.47,5.55-3.93-2.2-4.4,1-.58,4.16l3.35,2.78-2.77,2.19c-1.51,1.28-3.13,2.32-3.7,2.32-1.74,0-2.43-2.55-1.16-3.82a5,5,0,0,0,1.27-3c0-1.27-.46-1.15-2.31.47s-2.66,1.85-3.7.81a4.8,4.8,0,0,0-2.89-1.39c-2.89,0-1.51,3.35,3,7,2.55,2,4.86,4.86,5.32,6.48,1,4.28-.11,4.51-2.31.46-2-3.82-6.13-5.2-4.62-1.62,3.93,9.37,4,10.41,1.73,18.16-1.39,4.16-3,7.86-3.7,8.33s-1,.11-.69-1.39c3.35-11.68,3.7-13.3,2.54-16.31s-1.5-3.24-8.1-3.24c-8.79,0-13.87-3.58-19.31-13.87-1-2-1.85-2.9-2-2.2,0,2.77,3.7,11.45,6,14,2.08,2.31,2.2,3,.92,6.13-.81,1.85-1.85,3.47-2.31,3.47s-2.77-3.82-5-8.44c-4.63-9.83-5.55-10.76-12-11.57-4.63-.57-4.86-.46-3.7,1.62a6.5,6.5,0,0,0,4.28,2.89c2.2.47,4.39,2.78,7.63,7.87a108.71,108.71,0,0,0,7.29,9.94c1.85,2.09,2.89,5.32,3.7,11l1.15,8.1-.34-9.14c-.35-7.4,0-9.95,1.85-12.95,2-3.24,2.54-3.59,5.32-2.89A10.27,10.27,0,0,0,407,215c5.89-2.08,7.63,3.93,3.58,12.84-3.12,6.94-2.89,11,1.27,18.15,2.89,5.21,3.24,6.6,2.2,8.68s-.81,3,3,6.94c5,5.2,7.28,5.43,15,2.19,3-1.27,5.55-2.19,5.78-2,.7.69-12.95,14-23.59,23.13-8.09,6.82-10.64,8.44-10.64,6.7,0-6.24-8.9-1.85-14.69,7.17A93,93,0,0,1,379.78,310a76.16,76.16,0,0,0-8.44,11.22c-1.28,2.66-2.89,5.09-3.47,5.44s-3.7,6-6.94,12.6c-9.25,19-11.57,37-5.09,39.44,3.58,1.38,4.39-1.39,1.73-5.09-2.54-3.47-2.66-3.59-.81-12.49a94.62,94.62,0,0,1,5.79-17.23c2.19-4.51,4-8.79,4-9.49s1.28-2.54,2.78-4.39a51.6,51.6,0,0,0,5.2-8.1,29.69,29.69,0,0,1,7.17-8.67,36.53,36.53,0,0,0,7.52-8.44c3.36-5.78,9.72-12.14,9.72-9.72,0,.93-1.39,6.25-3.13,11.8-2.19,7.4-3.81,10.52-5.66,11.56-1.39.81-4.63,4-7.29,7.41s-5.67,6.24-6.94,6.7-4.62,5-7.86,10.76c-4.86,8.9-5.55,10.87-5.67,17.58-.35,13.53-3.58,23.94-6.24,19.66-.93-1.39-1.16-1.39-1.85.46-1,2.78,2.08,5.78,5.08,4.86,3.71-1.27,6.25-10.18,6.6-23.83.11-6.47.81-8.67,5.09-16.42,3.35-6,6.12-9.6,8.78-11.22a21.43,21.43,0,0,0,6.37-6.13,27.66,27.66,0,0,1,6.59-6.7c2.77-1.85,4.51-4.05,4.74-5.79.69-5.66,5-17.23,6.59-17.57s17.58-14.46,28-24.87c11.1-11,13.76-20.35,12.72-44.64-.58-13.64-2.55-27.18-3.82-25.9-.23.23.12,3.47.93,7.28,2.08,10.64,1.85,36-.47,41.17-3.7,8.45-13.76,11.68-18.15,5.79-2.08-2.78-2.31-2.9-2.43-.81a11.35,11.35,0,0,0,1.85,5.2c.92,1.62-.35.69-2.89-2.08-4.05-4.4-4.51-5.32-3.36-7.75,1.05-2.2.81-3.24-1.27-5.9-3-3.93-3.12-6.82-.11-8.9,2.19-1.62,6.94-13.07,6.94-17,0-1.16,1-3.36,2.31-5a12.67,12.67,0,0,0,2.31-6.82,7.67,7.67,0,0,1,2.31-5.9,10.87,10.87,0,0,0,3-5.43,11.24,11.24,0,0,1,2.31-4.74c2.09-1.74,2.09-8.45,0-10.18C433.09,180.75,433,181,433.32,183.18Z" style="fill:#fff"/><path d="M454.72,209.43c0,1.62.23,2.2.58,1.39a6.13,6.13,0,0,0,0-2.89C455,207.23,454.72,207.81,454.72,209.43Z" style="fill:#fff"/><path d="M114,218.8c-34.35,2.42-79.45,10.64-76.21,13.87.69.7,7-.23,17.23-2.31,18.16-3.82,44.64-7.4,71-9.48,9.83-.81,18.73-1.85,19.66-2.32C147.79,217.41,131.48,217.52,114,218.8Z" style="fill:#fff"/><path d="M291.42,221.69c.93.23,11.92,1.5,24.29,2.77s30.07,3.36,39.32,4.63,18.27,2.31,20.24,2.2l3.47-.12-3.47-1c-10.53-3.12-62.91-9.25-77.37-9C293.39,221.22,290.5,221.46,291.42,221.69Z" style="fill:#fff"/><path d="M416.44,239.73c-1.16,2.89.46,7.17,2.31,6.13,1.39-.93,1.39-8.68-.11-8.68C417.94,237.18,417,238.34,416.44,239.73Z" style="fill:#fff"/><path d="M41.62,275.35c0,3.35,25.1,12.6,48.58,17.81,16.65,3.7,49.26,9,51.81,8.56,1.15-.24-8.21-2.43-20.59-4.86-41-8-61.41-13.42-74.24-19.89C44.05,275.35,41.62,274.65,41.62,275.35Z" style="fill:#fff"/><path d="M388.57,285.76c-4.17.57-18.39,1.5-31.81,2.31C303.22,291,300.21,291.42,336,291c36.43-.35,59.09-2.08,61.87-4.74C399.67,284.37,400.48,284.37,388.57,285.76Z" style="fill:#fff"/><path d="M446.39,296.16c-3.24,14-18.62,51.12-20.47,49.39-.23-.35,0-1.74.81-3s.93-2.43.7-2.43c-1.28,0-5.32,9.37-4.63,10.64.46.69.35.93-.35.58s-4.16,3.35-7.75,8.67-6.47,9-6.47,8.44-1,0-2.2,1.05S404,372.15,404.3,373c1.5,3.82-40.13,38.05-43.72,35.86-.69-.47-.92-.35-.58.34s0,1.62-1,2-1.39.23-1-.46-.11-.81-1-.47-1.5,1.16-1.16,1.74-6.82,4.74-16,9.13C325.08,428.23,304,435.87,284,441.3c-10.52,2.89-6.82,3.24,5.78.47,15.39-3.36,33.66-9.95,51.93-18.86,33-16.19,57.82-36.54,73.67-60.48,4.28-6.48,4.28-6.48,5.09-3.24s.92,3.13,2.54,1c2.89-3.81,14.92-29.6,18.5-39.78,3.94-11.22,7.64-26.95,6.94-29.14C448.13,290.5,447.2,292.7,446.39,296.16Zm-38.16,73.33a7.29,7.29,0,0,1-2,2c-1.85,1.5-2,1.39-.46-.46S408.23,368.56,408.23,369.49Z" style="fill:#fff"/><path d="M77.48,360.93c16.42,20.7,41.05,43.37,60,55.28,23.24,14.45,52.39,26.71,67.77,28.45,6.7.81,6.13.57-13.3-5.67-37.59-11.91-74.71-36.55-104.09-69.16C76.09,356.65,70.07,351.56,77.48,360.93Z" style="fill:#fff"/><path d="M338.26,384.06c-1.27.58-5.67,3.93-9.83,7.63a80.34,80.34,0,0,1-18.16,11.68c-5.89,2.89-10.75,5.32-10.75,5.67,0,.69,13.88-4.74,20.7-8.1a50.23,50.23,0,0,0,11.1-8.33c2.78-2.77,5.67-5.08,6.48-5.08,2.54,0-10.76,12.72-16.31,15.49a86.56,86.56,0,0,1-11.22,4.63c-3.35,1.16-6.12,2.31-6.12,2.66,0,1.39,11.79-.81,16.88-3,6.36-2.89,10.52-6.24,17.35-14.22S345.2,381.05,338.26,384.06Z" style="fill:#fff"/><path d="M181,414.24c6.59,2,26.25,3.35,44.41,3.12l18-.11-20.59-.93c-11.33-.46-25.09-1.39-30.64-2.08C180.05,412.74,176,412.74,181,414.24Z" style="fill:#fff"/><path d="M149.84,304.75l-.16,0s1.34,3.69-23-.14l-8.14,7.81,1,.21a2.79,2.79,0,0,1-1.15,5.45l-4.86-1-3.86,3.46.38.08A2.78,2.78,0,1,1,109,326l-4.56-1c-4.46,3.68-8.47,6.59-11.06,7.63,0,0-4.76-1-4.19-3.73,0,0,15.34-18,21.4-27.35C86,296.64,86.35,295,86.35,295s-7.59,9.06-13,7.92l6.94-12.76.16,0L79.2,275.68c5.44,1.14,8.74,12.5,8.74,12.5s.35-1.69,24.82,3.67c-1.76-11-8.56-33.66-8.56-33.66.57-2.72,5.33-1.72,5.33-1.72,2,2,4.45,6.28,7,11.43l4.56,1a2.78,2.78,0,0,1-1.14,5.45l-.38-.08,2.14,4.71,4.86,1a2.78,2.78,0,0,1-1.14,5.44l-1-.21,4.3,10.43C152.55,301.91,149.84,304.75,149.84,304.75Z" style="fill:#f9fcff"/></svg>