<?xml version="1.0" encoding="utf-8"?>
<!-- Generator: Adobe Illustrator 26.1.0, SVG Export Plug-In . SVG Version: 6.00 Build 0)  -->
<svg version="1.1" id="Layer_1" xmlns="http://www.w3.org/2000/svg" xmlns:xlink="http://www.w3.org/1999/xlink" x="0px" y="0px"
	 viewBox="0 0 177.2 177.2" style="enable-background:new 0 0 177.2 177.2;" xml:space="preserve">
<style type="text/css">
	.st0{fill:#FFFFFF;}
	.st1{fill:#38BDF8;}
	.st2{fill:#BAE6FD;}
	.st3{fill:#0284C7;}
</style>
<circle class="st0" cx="89.2" cy="89.2" r="88"/>
<path class="st1" d="M147,53.5l-29,14.2c9.2,12.9,8.8,30.4-0.9,42.9l-2.2,41.3l26,8c39.5-28.9,48-84.4,19.1-123.8
	c-6.7-9.1-15-16.8-24.6-22.8L147,53.5z"/>
<path class="st2" d="M104.4,159.3l2-39.4c-17.3,9.9-39.3,3.9-49.1-13.4c-1.8-3.2-3.2-6.7-4-10.3L39.6,84.6L4.3,115.8
	c15.1,46.6,65.1,72.1,111.7,57c4.7-1.5,9.3-3.5,13.7-5.8L104.4,159.3L104.4,159.3z"/>
<path class="st3" d="M39.4,71.3L53,82.7C56.3,63.1,74.8,49.8,94.4,53c5.9,1,11.5,3.4,16.2,7.1L135,48.2L123.1,7C78-12,26,9.1,7,54.2
	c-6.8,16-8.7,33.6-5.5,50.7L39.4,71.3z"/>
</svg>
