<svg xmlns="http://www.w3.org/2000/svg" viewBox="0 0 239.29 83.25"><path d="M69.05,25.14,55.41,31.83A16.89,16.89,0,0,1,55,52L54,71.41,66.22,75.2a41.63,41.63,0,0,0-2.6-68.91l5.43,18.85Z" style="fill:#38bdf8"/><path d="M49.07,74.83l1-18.52a16.92,16.92,0,0,1-25-11.15l-6.46-5.4L2,54.43A41.65,41.65,0,0,0,60.93,78.51L49.07,74.83Z" style="fill:#bae6fd"/><path d="M18.53,33.53l6.4,5.35A16.91,16.91,0,0,1,52,28.25l11.44-5.61L57.84,3.28A41.66,41.66,0,0,0,.7,49.27Z" style="fill:#0284c7"/><path d="M98.82,61.85a10.49,10.49,0,0,1-5.61-1.31,7.34,7.34,0,0,1-3-3.81,17.53,17.53,0,0,1-.9-6V37.51q0-4.59,2.64-7a10.51,10.51,0,0,1,7.25-2.36q9.5,0,9.49,9.32V39.9c0,2.9,0,4.85-.08,5.85H97.19v6.37a13.81,13.81,0,0,0,.11,1.72,3.14,3.14,0,0,0,.49,1.4,1.65,1.65,0,0,0,2.78-.52,10.05,10.05,0,0,0,.31-2.78V48.78h7.82v1.87a18.07,18.07,0,0,1-.91,6.18,6.94,6.94,0,0,1-3.07,3.76A11.75,11.75,0,0,1,98.82,61.85Zm-1.67-20h3.73V37.4a5.54,5.54,0,0,0-.44-2.56,1.42,1.42,0,0,0-1.32-.78,1.68,1.68,0,0,0-1.46.75,4.8,4.8,0,0,0-.51,2.59Z" style="fill:#fff"/><path d="M110.83,61.5l6-17.71-5.49-15.27h8l2.83,8,2.79-8h5.85l-5.67,16.3,5.93,16.68h-7.89l-3.34-9.27-3.12,9.27Z" style="fill:#fff"/><path d="M133.56,67V28.54h8v3.52a6.86,6.86,0,0,1,2-2.85,5.82,5.82,0,0,1,3.68-1,4.8,4.8,0,0,1,4.56,2.35,12.42,12.42,0,0,1,1.33,6.16V52.91a13.81,13.81,0,0,1-.71,4.56,6.85,6.85,0,0,1-2.24,3.21,6.39,6.39,0,0,1-4,1.17q-3.21,0-4.64-3.86v9Zm9.87-11.28a1.38,1.38,0,0,0,1.48-1.23,15.19,15.19,0,0,0,.26-3V38.58a15.22,15.22,0,0,0-.26-3,1.38,1.38,0,0,0-1.48-1.22,1.47,1.47,0,0,0-1.57,1.24,13.1,13.1,0,0,0-.3,3V51.46a13,13,0,0,0,.3,3A1.46,1.46,0,0,0,143.43,55.72Z" style="fill:#fff"/><path d="M166,61.85a10.48,10.48,0,0,1-5.6-1.31,7.29,7.29,0,0,1-3-3.81,17.53,17.53,0,0,1-.9-6V37.51q0-4.59,2.64-7a10.49,10.49,0,0,1,7.25-2.36q9.49,0,9.49,9.32V39.9q0,4.35-.09,5.85H164.41v6.37a12.13,12.13,0,0,0,.11,1.72,3.14,3.14,0,0,0,.49,1.4,1.4,1.4,0,0,0,1.24.55,1.43,1.43,0,0,0,1.54-1.07,10.05,10.05,0,0,0,.31-2.78V48.78h7.82v1.87a18.07,18.07,0,0,1-.91,6.18,6.92,6.92,0,0,1-3.08,3.76A11.73,11.73,0,0,1,166,61.85Zm-1.67-20h3.74V37.4a5.54,5.54,0,0,0-.44-2.56,1.42,1.42,0,0,0-1.32-.78,1.66,1.66,0,0,0-1.46.75,4.78,4.78,0,0,0-.52,2.59Z" style="fill:#fff"/><path d="M179.45,61.5v-33h7.87v4.2A7.11,7.11,0,0,1,189,29.52a4.24,4.24,0,0,1,3.32-1.33c2.29,0,3.95.71,5,2.11a9.6,9.6,0,0,1,1.55,5.78V61.5h-7.76V36.89a4.15,4.15,0,0,0-.39-1.79,1.39,1.39,0,0,0-1.36-.82,1.51,1.51,0,0,0-1.33.62,3.37,3.37,0,0,0-.54,1.56,14.72,14.72,0,0,0-.11,1.86V61.5Z" style="fill:#fff"/><path d="M211.59,61.85q-9.75,0-9.75-9.88V49.35h7.91v3.87a3,3,0,0,0,.44,1.76,1.58,1.58,0,0,0,1.4.63c1.15,0,1.72-.85,1.72-2.57a4.91,4.91,0,0,0-.9-3.22,14.11,14.11,0,0,0-2.2-2L206,44.54a12.24,12.24,0,0,1-3-3.25,9.23,9.23,0,0,1-1-4.77,7.72,7.72,0,0,1,1.35-4.68,8.07,8.07,0,0,1,3.58-2.75,12.79,12.79,0,0,1,4.82-.9q9.59,0,9.58,9.56v.62h-8.12V37.11a5.43,5.43,0,0,0-.35-1.91,1.3,1.3,0,0,0-1.32-.92c-1.12,0-1.67.58-1.67,1.76a3.25,3.25,0,0,0,1.4,2.79l4.88,3.56A15.63,15.63,0,0,1,220,46.3a10.42,10.42,0,0,1,1.55,6c0,3.1-.88,5.47-2.65,7.09A10.27,10.27,0,0,1,211.59,61.85Z" style="fill:#fff"/><path d="M224.59,61.5v-33h8v3.67a5.58,5.58,0,0,1,2-3,6,6,0,0,1,3.65-1.08v6.57a15.38,15.38,0,0,0-2.31.21,13.27,13.27,0,0,0-2.35.57c-.67.24-1,.51-1,.8V61.5Z" style="fill:#fff"/></svg>