<?xml version="1.0" encoding="iso-8859-1"?>
<!-- Uploaded to: SVG Repo, www.svgrepo.com, Generator: SVG Repo Mixer Tools -->
<!DOCTYPE svg PUBLIC "-//W3C//DTD SVG 1.1//EN" "http://www.w3.org/Graphics/SVG/1.1/DTD/svg11.dtd">
<svg fill="#000000" version="1.1" id="Capa_1" xmlns="http://www.w3.org/2000/svg" xmlns:xlink="http://www.w3.org/1999/xlink" 
	 width="800px" height="800px" viewBox="0 0 45.569 45.569"
	 xml:space="preserve">
<g>
	<g>
		<path d="M8.646,21.62c0-4.857,3.951-8.809,8.811-8.809c4.854,0,8.806,3.952,8.806,8.809c0,2.952-1.459,5.569-3.693,7.168
			c-0.399,0.817-0.625,1.735-0.625,2.707c0,1.147,0.313,2.224,0.859,3.144c5.116-2.11,8.727-7.149,8.727-13.018
			c0-6.417-4.316-11.844-10.196-13.531l2.877-2.606V1.867C24.21,0.82,23.363,0,22.317,0h-9.724c-1.046,0-1.903,0.82-1.903,1.867
			v3.616l2.883,2.605C7.689,9.777,3.377,15.203,3.377,21.62c0,5.7,3.408,10.619,8.294,12.831c-0.173-0.959-0.262-1.947-0.262-2.956
			c0-1.092,0.106-2.162,0.309-3.197C9.836,26.682,8.646,24.286,8.646,21.62z"/>
		<path d="M33.917,18.672c0.172,0.957,0.262,1.941,0.262,2.948c0,1.097-0.106,2.169-0.311,3.208
			c1.871,1.617,3.059,4.005,3.059,6.666c0,4.857-3.951,8.811-8.808,8.811c-4.859,0-8.81-3.953-8.81-8.811
			c0-2.962,1.471-5.588,3.721-7.188c0.396-0.812,0.617-1.725,0.617-2.688c0-1.15-0.317-2.226-0.864-3.148
			c-5.123,2.107-8.74,7.15-8.74,13.023c0,7.761,6.314,14.075,14.076,14.075c7.759,0,14.073-6.314,14.073-14.075
			C42.192,25.801,38.793,20.886,33.917,18.672z"/>
	</g>
</g>
</svg>