<?xml version="1.0" encoding="iso-8859-1"?>
<!-- Uploaded to: SVG Repo, www.svgrepo.com, Generator: SVG Repo Mixer Tools -->
<svg fill="#000000" height="800px" width="800px" version="1.1" id="Layer_1" xmlns="http://www.w3.org/2000/svg" xmlns:xlink="http://www.w3.org/1999/xlink" 
	 viewBox="0 0 512 512" xml:space="preserve">
<g>
	<g>
		<polygon points="188.357,233.739 208.185,512 239.304,512 239.304,233.739 		"/>
	</g>
</g>
<g>
	<g>
		<polygon points="272.696,233.739 272.696,512 302.772,512 322.6,233.739 		"/>
	</g>
</g>
<g>
	<g>
		<path d="M356.074,233.739L336.246,512h53.319c8.457,0,15.565-6.315,16.577-14.707l31.626-263.554H356.074z"/>
	</g>
</g>
<g>
	<g>
		<path d="M154.883,233.739H74.232l31.626,263.554c1.012,8.391,8.12,14.707,16.577,14.707h52.276L154.883,233.739z"/>
	</g>
</g>
<g>
	<g>
		<path d="M456.348,166.957H55.652c-9.206,0-16.696,7.49-16.696,16.696c0,9.206,7.49,16.696,16.696,16.696h400.696
			c9.206,0,16.696-7.49,16.696-16.696C473.043,174.446,465.554,166.957,456.348,166.957z"/>
	</g>
</g>
<g>
	<g>
		<path d="M416.892,72.848c-10.653-23.913-34.087-39.456-60.718-39.456c-2.956,0-5.891,0.196-8.815,0.598
			C335.728,13.391,313.728,0,289.391,0C277.62,0,266.131,3.174,256,9.109C245.869,3.174,234.38,0,222.609,0
			c-24.337,0-46.337,13.391-57.967,33.989c-2.924-0.402-5.859-0.598-8.815-0.598c-26.631,0-50.076,15.544-60.718,39.467
			c-23.913,10.642-39.456,34.076-39.456,60.707h400.696C456.348,106.935,440.804,83.501,416.892,72.848z"/>
	</g>
</g>
</svg>