<?xml version="1.0" encoding="utf-8"?><!-- Uploaded to: SVG Repo, www.svgrepo.com, Generator: SVG Repo Mixer Tools -->
<svg version="1.1" id="Uploaded to svgrepo.com" xmlns="http://www.w3.org/2000/svg" xmlns:xlink="http://www.w3.org/1999/xlink" 
	 width="800px" height="800px" viewBox="0 0 32 32" xml:space="preserve">
<style type="text/css">
	.sharpcorners_een{fill:#111918;}
	.st0{fill:#111918;}
</style>
<path class="sharpcorners_een" d="M26,5v5h-2V5H26z M8,5H6v5h2V5z M14,2h-2v5h2V2z M14,8h-2v6h2V8z M17,3h-2v5h2V3z M17,9h-2v5h2V9z
	 M11,3H9v5h2V3z M11,14V9H9v1.877L9.781,14H11z M20,11h-2v3h2V11z M20,5h-2v5h2V5z M23,15H9l-1-4H5v7h22v-7h-3L23,15z M5,30h22V19H5
	V30z M22.969,11H21v3h1.219L22.969,11z M23,5h-2v5h2V5z"/>
</svg>