<svg xmlns="http://www.w3.org/2000/svg" viewBox="0 0 177.7 53.04"><path d="M23.12.13C18.76.59,13.59,2.7,11.1,5l-.59.56L11.29,5a24.9,24.9,0,0,1,8.17-3.85,24.62,24.62,0,0,1,12.12,0,27,27,0,0,1,14.48,9.68A24.15,24.15,0,0,1,50.78,21.7a32.62,32.62,0,0,1,.33,7.83,26.12,26.12,0,0,1-6.39,14.55A25.51,25.51,0,0,1,31,51.92,24.72,24.72,0,0,1,6.14,42.57a29.19,29.19,0,0,1-5-10.25A25.58,25.58,0,0,1,1,21,29,29,0,0,1,6,9.88c.76-.94.65-1.07-.14-.19C3.25,12.69.85,18.32.17,23.1a31.15,31.15,0,0,0,.12,7.54A29.68,29.68,0,0,0,4.21,40.78a28.34,28.34,0,0,0,8.29,8.36,31.94,31.94,0,0,0,5.75,2.72,26.13,26.13,0,0,0,14.4.33A27,27,0,0,0,43,46.62a26.29,26.29,0,0,0,8.76-17.8,27.63,27.63,0,0,0-4-16.47C42.16,3.91,32.56-.87,23.12.13Z" style="fill:#0284c7"/><path d="M23.71,1.68A22,22,0,0,0,11.8,6.43a26.17,26.17,0,0,0-7.4,9.08,25,25,0,0,0-2,16.23,25.86,25.86,0,0,0,8,13.64,29.09,29.09,0,0,0,5.22,3.48,21.4,21.4,0,0,0,10.89,2.25,21.64,21.64,0,0,0,8.29-1.68,22,22,0,0,0,3.91-2.11s-.78.35-1.72.85a23.66,23.66,0,0,1-11,2.72,22.84,22.84,0,0,1-16.59-7,26.81,26.81,0,0,1-5.88-9.31,13,13,0,0,1-.84-3.45c0-.09.08-.05.08.1C2.8,32,4.12,36,4.3,35.79a1.86,1.86,0,0,0-.2-.65A30.81,30.81,0,0,1,2.84,30.9c-.09-.52-.12-.55-.21-.26s-.08.09,0-.33,0-.6-.07-.45-.13.06-.07-.37,0-.54,0-.54a24.11,24.11,0,0,1,0-5.07,22,22,0,0,1,1.1-5,26.59,26.59,0,0,1,2.15-4.74A7.36,7.36,0,0,1,5,15.73a19.64,19.64,0,0,0-1.48,4.13c0,.24.2-.31.55-1.24a26.6,26.6,0,0,1,3.45-6.55A20.76,20.76,0,0,1,10,9.17c.69-.69,1.16-1.26,1.05-1.26C10.6,7.91,7,12,6.34,13.26c-.1.19-.24.36-.31.36s.37-.84,1.35-2.14A22,22,0,0,1,11,7.7c.1,0,.26,0,.39-.19s.17-.25.12-.25,0-.12.13-.26.26-.22.35-.1.11.11.11-.05a4.91,4.91,0,0,1,1.8-1.41.14.14,0,0,0,.14-.14c0-.07.07-.09.13,0s.13,0,.13-.07.05-.11.12-.06a.14.14,0,0,0,.19,0,1,1,0,0,1,.47-.19c.22,0,.39-.16.39-.27s.08-.17.17-.13a3.09,3.09,0,0,0,1-.32c.47-.22.75-.41.65-.41-.3,0,1-.49,2.41-.92a22.57,22.57,0,0,1,13.16.35A24.28,24.28,0,0,1,44.31,11a24.84,24.84,0,0,1,5,10.13c.17.72.31,1.17.31,1a19.33,19.33,0,0,0-.95-4,21.79,21.79,0,0,0-5.39-8.66,25,25,0,0,0-9-6.11A23.94,23.94,0,0,0,23.71,1.68ZM11.49,7.31s-.11.13-.22.22-.23.16-.06,0S11.49,7.21,11.49,7.31ZM6,13.88a.3.3,0,0,1-.21.13c-.08,0-.09-.06,0-.13a.28.28,0,0,1,.2-.13C6,13.75,6,13.81,6,13.88Z" style="fill:#0284c7"/><path d="M23.82,3.07A23.22,23.22,0,0,0,17.91,4.4a18.65,18.65,0,0,0-5.58,3.39l-.52.55.58-.46a35.17,35.17,0,0,1,3.82-2.46,22.32,22.32,0,0,1,7.13-2.09,7.81,7.81,0,0,0,1.48-.28C24.9,3,24.71,3,23.82,3.07Z" style="fill:#0284c7"/><path d="M30.64,3.75c.14.07,1,.42,2,.78,2.67,1.06,5.09,2.57,6,3.76a2.94,2.94,0,0,0,.65.71c.22.08.26,1.35.07,2.87l-.11.91.47.43c.57.52.91.36.39-.2-.33-.36-.33-.36-.26-2.22l.06-1.85L39,8.1a20.36,20.36,0,0,0-6.86-4C31.07,3.75,30.19,3.55,30.64,3.75Z" style="fill:#0284c7"/><path d="M21.62,5.26a5,5,0,0,0-1,.39,2.69,2.69,0,0,1-1,.27c-.8.08-1.53.56-1.27.83s.25.08.56-.19.82-.46.7-.14.45.23,1-.15a3.92,3.92,0,0,1,2.12-.7c.44,0,.76-.18.59-.34A2.65,2.65,0,0,0,21.62,5.26Z" style="fill:#0284c7"/><path d="M25.64,5.36a7.22,7.22,0,0,0,1.21.2c1.12.14,2.7.49,2.32.52-.09,0-.93-.08-1.87-.2-2.2-.27-4.67-.22-5,.11s-.22.23,0,.49.39.26,1.61.26c.93,0,1.31,0,1.18-.13A3.59,3.59,0,0,0,24,6.48c-1.21,0-1.53-.21-.53-.32a21.57,21.57,0,0,1,4.72.28,5,5,0,0,0,2,.08c.35-.35-.82-.84-2.61-1.08A6.08,6.08,0,0,0,25.64,5.36Z" style="fill:#0284c7"/><path d="M16.88,6.51a7,7,0,0,0-2.15,1.36c0,.27.29.2.91-.23a8.29,8.29,0,0,1,1.62-.9s-.05.12-.19.26c-.53.53-.12.65.62.16.33-.22.33-.22.16-.56S17.46,6.3,16.88,6.51Z" style="fill:#0284c7"/><path d="M35.12,7.16c1.36,1,1.55,1.24,1.29,1.41a1,1,0,0,1-.47.12c-.33,0-.39.25-.14.49a.62.62,0,0,0,.9-.09,1.4,1.4,0,0,1,.38-.31c.26-.09-.67-1-1.71-1.71C34,6.17,33.9,6.22,35.12,7.16Z" style="fill:#0284c7"/><path d="M21,6.73c-.26.22-.61,1.13-.49,1.31s-1,1.13-1.43,1.23-.71.3-.71.7v.34L18.17,10c-.18-.32-.23-.34-1-.3s-1.06.17-.93.51c.08.19.19.22.78.14s.71,0,.78.12a.89.89,0,0,0,.48.32c.54.2.8,0,.62-.55-.12-.29-.1-.37.09-.42a3.33,3.33,0,0,0,1.56-1c.68-.65.82-1,.52-1.27-.12-.12-.12-.16,0-.16s.52-.39.54-.69S21.37,6.43,21,6.73Z" style="fill:#0284c7"/><path d="M27.52,7.34c-.78.4-1,.62-1,1.13a1.63,1.63,0,0,1-.32.82,1.47,1.47,0,0,0-.33.75.78.78,0,0,0,.33.57c.37.3.4.42.11.42s-.21.09-.14.5l.06.51L25.85,12a.67.67,0,0,0-.62.15c-.19.18-.23.17-.41,0S24,11.74,24,12s.73.85,1,.85a.32.32,0,0,0,.26-.19.39.39,0,0,1,.67,0,.44.44,0,0,0,.78-.18c0-.15,0-.28-.07-.28s-.08-.17,0-.46c.22-.74.73-.57,1.39.46a4.63,4.63,0,0,0,.8.93,2.19,2.19,0,0,1,.65.86l.26.57-.36.8-.36.8-.5-.48A2,2,0,0,1,28,15a2.36,2.36,0,0,0-1.18-1.15.22.22,0,0,1-.25-.24c0-.31-.47-.67-.88-.67s-.31,0-.24.58,0,.76-.53.79c-.35,0-.38-.09-.08-.55s.21-.34-.21-.71a1.1,1.1,0,0,0-.57-.33c-.09,0-.22.28-.3.55s-.16.44-.23.35a1,1,0,0,1,.13-.61c.29-.61.09-.84-.34-.39s-.46.4-.45,0-.05-.35-.39-.37a.9.9,0,0,0-.64.24c-.24.24-.24.24.05.49a1,1,0,0,0,.51.23c.22,0,.53.25.95.77s.54.34.82-.22c.13-.26.26-.42.28-.33a1.14,1.14,0,0,1-.14.55c-.32.61-.26.78.36,1.07s1,.22,1-.2,1-.78,1.62-.39c.35.23.41.44.19.66s-.22.08-.41-.17a.91.91,0,0,0-.56-.31c-.35,0-.54.2-.29.31s.1.12-.08.24c-.78.54-.87.66-.83,1.05s.36.64.36.17c0-.18.07-.34.14-.34a9.86,9.86,0,0,1,2.06,1.6A5.46,5.46,0,0,1,28.63,19l.36.84-.64.16a1.4,1.4,0,0,0-.63.26,1.08,1.08,0,0,0,.25.39l.23.3.43-.35a1.9,1.9,0,0,1,.44-.33A5.91,5.91,0,0,1,29,21c-.05.75-.27.93-.74.63a2.14,2.14,0,0,1-.58-.66,1.1,1.1,0,0,0-1.25-.56c-.27,0-.39.12-.41.34s-.55.68-.55.36a.29.29,0,0,1,.17-.24c.1,0,.08-.09-.07-.16-.48-.19-1.51.7-1.27,1.11.09.15.17.14.46-.13s.36-.28.48-.16c.35.35,1.4,0,1.4-.44a.18.18,0,0,1,.19-.18c.11,0,.2.05.2.1a2.89,2.89,0,0,0,.45.64c.58.66,1,.8,1.51.44l.36-.27.39.33c.9.76.26,1.92-1.41,2.57-.87.35-1.43.82-1.43,1.21a2.83,2.83,0,0,0,.34.78,3.54,3.54,0,0,1,.45,1.69c.13,1.41.38,1.79,2,3C32,33,32.07,33,32.07,33.36s.27.48.44.16,0-1-.74-1.39c-.34-.21-.93-.64-1.32-.94-2-1.58-2.21-1.84-2.21-3.06a2.91,2.91,0,0,0-.34-1.36c-.49-1-.4-1.19.79-1.63a2.86,2.86,0,0,0,2-1.78c.18-.68.09-1-.6-1.71-.55-.59-.56-.62-.48-1.25a1.15,1.15,0,0,0-.24-1c-.33-.47-.36-.84-.09-2.31a3.94,3.94,0,0,1,.54-1.56c.33-.49.35-.52.16-1.19a2.14,2.14,0,0,0-.66-1.15c-.4-.37-.47-.49-.39-.79a2.44,2.44,0,0,0,0-1.64c-.17-.2-.18-.18-.13.24s-.17,1.25-.35,1.25a3.7,3.7,0,0,1-.44-.54,2.14,2.14,0,0,0-.6-.61,3.55,3.55,0,0,1-.73-.53c-.48-.42-.49-.45-.31-.77.33-.57.56-.63,1-.24a2.26,2.26,0,0,0,.75.43c.55.1.72.23,1.17.84,1,1.39,1,1.32,1.65,1.35a2.33,2.33,0,0,1,.93.17.74.74,0,0,0,1-.08c.29-.32.27-.57-.05-1a.74.74,0,0,1-.18-.71.57.57,0,0,0-.13-.57,4,4,0,0,1-.46-.77,5.38,5.38,0,0,0-1.91-2A3.55,3.55,0,0,0,27.52,7.34Zm2.34.18a.35.35,0,0,0,.26.13c.27,0,1.25,1.1,1.57,1.77s.26.57,0,.57c-.41,0-.27.39.34,1a2.65,2.65,0,0,1,.58.71c0,.2-.36.31-.56.15a2.28,2.28,0,0,0-.87-.18c-.66,0-.72-.07-1.13-.62-.75-1.06-1-1.32-1.46-1.47A4.14,4.14,0,0,1,27,8.48a.39.39,0,0,1,.37-.57.53.53,0,0,0,.39-.14,1.08,1.08,0,0,1,.38-.25A3,3,0,0,1,29.86,7.52Zm2.4,2.86c0,.06-.11.13-.24.13a.47.47,0,0,1-.34-.13c-.05-.08.06-.13.25-.13S32.26,10.3,32.26,10.38ZM26,13.69c0,.1,0,.19-.05.19s-.08-.09-.13-.19,0-.2,0-.2S26,13.58,26,13.69Zm1,2c.07.21.16.25.46.19.53-.12,1.3.62,1.3,1.28s-.13.59-.41.25a14,14,0,0,0-2-1.51c-.1,0-.06-.13.1-.27C26.82,15.39,26.9,15.39,27,15.71Z" style="fill:#0284c7"/><path d="M24.58,8.94c-.55.11-.89.35-.89.61s.15.23.34.07a3.1,3.1,0,0,1,1.45-.39c.5,0,.69-.11.42-.28A2,2,0,0,0,24.58,8.94Z" style="fill:#0284c7"/><path d="M15,9.22c-.47.3-.57.64-.19.64A4.78,4.78,0,0,0,16.55,9C16.55,8.83,15.43,9,15,9.22Z" style="fill:#0284c7"/><path d="M40.82,9.34A10.22,10.22,0,0,1,42,12.26c.3,1.16.44,1.42.74,1.3a7.21,7.21,0,0,1,.79-.2,4.6,4.6,0,0,0,.78-.19c.14-.05.35.12.65.53s.53.73.64.86a.51.51,0,0,1,.09.43c-.11.28-.54,0-.79-.44s-.56-.6-.86-.08c-.16.27-.38.45-.52.45-.33,0-.31.22,0,.42a.55.55,0,0,1,.26.39A.44.44,0,0,0,44,16a.33.33,0,0,1,.13.28c0,.17,0,.17-.19,0-.38-.31-.5,0-.13.39s.32.3.58.07.27-.24.56,0a2.78,2.78,0,0,0,.56.4,1.44,1.44,0,0,1,.44.67c.23.74.56,1,1,.84s.47-.52,0-.47c-.34,0-.43,0-.49-.28s-.12-.42-.16-.54,0-.19.26-.11.34,0,.34,0A4.31,4.31,0,0,0,46,16c-.14,0-.13.35,0,.66s.09.25-.09.25c-.39,0-.83-.39-.81-.69,0-.49,0-.6-.41-1.06s-.33-.59.3,0,.5.5.87.28l.37-.21.67,1.48c.37.8.85,2.06,1.09,2.78a6.66,6.66,0,0,0,.49,1.3A8.52,8.52,0,0,0,48,18.49,24.19,24.19,0,0,0,43.42,11c-.77-.74-.74-.63.18.64.69,1,.7,1.18.12,1.39-.26.1-.28.09-.16-.16s0-.36-.71-1.13a8.73,8.73,0,0,1-1.2-1.47,4.78,4.78,0,0,0-.72-1l-.41-.37Zm2.12,3c.23.35.25.4.06.59s-.43.13-.53-.43c0-.25-.13-.56-.17-.68s-.06-.19.14,0A5.06,5.06,0,0,1,42.94,12.35Zm1.47,2.83c-.06.08,0,.22.06.33.21.26,0,.24-.21,0s-.14-.46.09-.46C44.43,15.05,44.44,15.12,44.41,15.18Z" style="fill:#0284c7"/><path d="M22.74,10.08c-.49.08-.36.38.16.32.29,0,.4,0,.4.17s.47.25.57,0C24.1,10,23.89,9.91,22.74,10.08Z" style="fill:#0284c7"/><path d="M20.86,11.46c-.32.14-.32.32,0,.51a.39.39,0,0,0,.63-.28C21.49,11.38,21.24,11.29,20.86,11.46Z" style="fill:#0284c7"/><path d="M21,13.1a2.27,2.27,0,0,0-.44.47l-.23.35.37-.26a2.7,2.7,0,0,1,.61-.33c.26-.1.3-.36.07-.36A1.14,1.14,0,0,0,21,13.1Z" style="fill:#0284c7"/><path d="M15,13.43c-.23.1-.83.41-1.34.71l-.92.54-.43-.26a1.78,1.78,0,0,0-.52-.28c-.22,0,0,.39.38.78l.45.44.81-.18c1.3-.27,1.79-.22,2.21.25A1.33,1.33,0,0,1,16,16.58a2.12,2.12,0,0,1-.19,1c-.33.43-.24.87.27,1.36a1.08,1.08,0,0,0,.71.4c.26,0,.26,0,0,.52a9.76,9.76,0,0,1-.6,1A3.81,3.81,0,0,0,15.65,24a1.49,1.49,0,0,0,1.17,1l.47.08.07,1.28c.07,1.67.4,2.35,1.33,2.87a3.19,3.19,0,0,0,.89.37c.15,0,.22.1.22.41a4.11,4.11,0,0,0,1.37,2.18,5.85,5.85,0,0,0,2.52,1.3c.41,0,.52.09.89.6a2.17,2.17,0,0,0,1,.69c.37.15.76.32.85.37.28.15.35,5.49.09,6.91a15.89,15.89,0,0,0-.19,2.11c0,1,0,1,.45,1.48l.46.48,1.21-.08a11.54,11.54,0,0,0,2.78-.43,3.25,3.25,0,0,0-1,.08c-.5.06-1.29.13-1.76.13h-.87l-.07-.69a2.61,2.61,0,0,1,.78-2.31A3.65,3.65,0,0,0,29.5,41a2.37,2.37,0,0,1,.52-.9,2.24,2.24,0,0,0,.49-1.29c.1-.56.21-1,.22-1,.62-.24,1-.73,1.27-1.86.41-1.47.33-2-.35-2.22A22,22,0,0,0,28.86,33c-.38,0,.42.55,1.05.73,1.89.52,1.77.45,1.76,1A5,5,0,0,1,31,36.92a.78.78,0,0,1-.5.21c-.27,0-.31.08-.39.8-.13,1.16-.35,1.93-.45,1.63s-.34-.07-.53.69a4.82,4.82,0,0,1-1.22,2.26,3,3,0,0,0-.89,2.1c0,.23-.05.41-.11.38-.26-.17-.28-1.13-.06-2.78A17.59,17.59,0,0,0,27,38.45a15,15,0,0,1,0-2.63c.18-.85,0-1.09-.87-1.38a2.77,2.77,0,0,1-1-.53c-.14-.18-.39-.44-.53-.61a1.69,1.69,0,0,0-.83-.38,5.15,5.15,0,0,1-3.21-2.31A10.66,10.66,0,0,1,20.06,29a1.4,1.4,0,0,1,.44-.22,1.59,1.59,0,0,0,.86-1.64c0-1.16.5-1.69,1.62-1.69a1.18,1.18,0,0,0,.84-.45A1.9,1.9,0,0,1,25,24.4,3,3,0,0,0,26,23.92c.47-.4.42-.52-.13-.24a4.48,4.48,0,0,1-1.19.29c-.69.07-.83.13-1.13.52a.91.91,0,0,1-.87.43c-1.2,0-1.88.77-1.88,2.09,0,.81-.34,1.42-.78,1.42a.79.79,0,0,0-.44.19c-.3.3-.59.24-1.06-.23s-.71-1.17-.71-2.71a4.07,4.07,0,0,0-.12-1.33.88.88,0,0,0-.5.08c-.34.13-.45.12-.67-.08a2.57,2.57,0,0,1-.06-3,14.79,14.79,0,0,0,.83-1.47c.64-1.26.65-1.7,0-2.08a.67.67,0,0,1-.43-.64,1.38,1.38,0,0,0-.17-.65,3.3,3.3,0,0,1-.32-.8,2.09,2.09,0,0,0-.5-.84c-.28-.27-.45-.31-1.23-.31-1,0-1-.07.17-.66s1.57-.38,2.17.62c.24.41.36.48.92.56a2.5,2.5,0,0,1,1,.35,1,1,0,0,0,.89.17,4.09,4.09,0,0,1,1.29,0,19.91,19.91,0,0,1,4.46,2c.23.26.64.33.75.13s-.4-.79-.61-.79a20.36,20.36,0,0,1-2-.87,6.05,6.05,0,0,0-2.87-.92A2.81,2.81,0,0,1,19.64,15a.55.55,0,0,0-.48-.13,2.23,2.23,0,0,1-1.75-.6c-.24-.32-.25-.36,0-.58s.18-.29.13-.32A6,6,0,0,0,15,13.43Zm1.72,4c-.06.15.05.36.32.63s.36.44.25.59-.55.22-.89-.09-.27-.36-.2-.56.15-.52.23-.83c.13-.47.17-.51.25-.28A1.11,1.11,0,0,1,16.75,17.42Z" style="fill:#0284c7"/><path d="M22.26,13.56c0,.1.07.19.13.19a.12.12,0,0,1,.13.12c0,.23-.74.22-1,0s-.36-.2-.52-.11c-.34.19-.39.3-.3.63a.64.64,0,0,0,.92.3c.19-.11.3-.08.49.13s.24.26.52-.11a.86.86,0,0,0,.18-1.09C22.61,13.31,22.26,13.27,22.26,13.56Z" style="fill:#0284c7"/><path d="M38.7,13.74c-.2.23-.2.27,0,.66a1,1,0,0,1,.14.59c-.18.48.34,1.36.82,1.36.21,0,.79-.93.79-1.26C40.44,13.94,39.32,13.07,38.7,13.74Zm.9.4c.23.25.22.26-.08.26s-.63-.2-.63-.41S39.37,13.88,39.6,14.14Zm.51.76c.08.13-.5.67-.7.67s-.13-.18-.13-.39,0-.39.37-.39A.72.72,0,0,1,40.11,14.9Z" style="fill:#0284c7"/><path d="M41.87,13.74A1.4,1.4,0,0,0,42,15c.16.23.25.26.47.14s.26-.14,0-.34-.27-.27-.19-.76S42.12,13.3,41.87,13.74Z" style="fill:#0284c7"/><path d="M22.52,15c-.2.26-.06.43.46.53a1.07,1.07,0,0,1,.53.19c.13.21.43.12.51-.14a.42.42,0,0,0-.47-.58.28.28,0,0,1-.31-.07C23.12,14.73,22.71,14.77,22.52,15Z" style="fill:#0284c7"/><path d="M41.91,15.82a1.94,1.94,0,0,0-.5.71c-.07.28-.19.34-.65.42a1.11,1.11,0,0,1-.77-.08c-.12-.09-.23-.13-.29-.08s.37.6.63.6a1.41,1.41,0,0,1,.57.16l.32.14-.29.4c-.42.55-.5.81-.37,1.16s0,.56-.47.67-.81.5-.81,1.47.24,1.65.74,1.75a2.17,2.17,0,0,1,1.33,1.12,1.28,1.28,0,0,0,.46.58c.22.15.31.35.35.84a7.81,7.81,0,0,0,1.19,2.77.9.9,0,0,0,.45.11,2,2,0,0,1,.79.32c.4.25.53.29.65.15s-.06-.47-.34-.47a3,3,0,0,1-.82-.33c-.47-.23-.65-.4-.65-.59a1.35,1.35,0,0,0-.27-.65c-.14-.21-.23-.38-.2-.38s0-.12-.18-.26a1.12,1.12,0,0,1-.26-.86,1,1,0,0,0-.37-.93,3.29,3.29,0,0,1-.59-.77,2.21,2.21,0,0,0-.5-.65c-.17-.13-.29-.31-.25-.41s0-.15-.22-.08c-.57.18-.77,0-.86-.9s0-1.33.65-1.45.74-.4.64-1.09c-.08-.5-.06-.59.36-1,.65-.7.78-.9.69-1.06s-.16-.09-.33,0-.27.09-.32,0,0-.13,0-.13.23-.18.36-.39c.23-.41.53-.4.42,0s.09.42.58.32l.4-.1-.3-.31a1.21,1.21,0,0,1-.3-.65C42.59,15.39,42.39,15.38,41.91,15.82Z" style="fill:#0284c7"/><path d="M31.16,19.09A23.63,23.63,0,0,0,35,21a43.1,43.1,0,0,0-4.68-2.43A3.64,3.64,0,0,0,31.16,19.09Z" style="fill:#0284c7"/><path d="M47.29,19.9a.55.55,0,0,1-.73.62c-.44-.25-.49.12-.06.47l.37.31-.31.25a1.25,1.25,0,0,1-.41.26c-.2,0-.28-.29-.13-.43a.64.64,0,0,0,.14-.34c0-.14,0-.13-.26.05s-.3.21-.42.09a.52.52,0,0,0-.32-.15c-.33,0-.17.37.34.79a1.83,1.83,0,0,1,.59.73c.12.48,0,.5-.26.05s-.68-.59-.52-.18c.45,1,.46,1.16.2,2a3.29,3.29,0,0,1-.42.94c-.09.06-.11,0-.07-.16.37-1.31.41-1.49.28-1.83s-.17-.36-.91-.36c-1,0-1.56-.4-2.17-1.56-.11-.22-.2-.32-.22-.25a4,4,0,0,0,.68,1.58c.23.25.25.33.1.68s-.21.39-.26.39a3.51,3.51,0,0,1-.56-.95c-.52-1.1-.62-1.2-1.35-1.29-.52-.07-.54-.06-.41.18a.72.72,0,0,0,.48.32c.25.05.49.31.86.89.28.42.65.93.81,1.11a2.32,2.32,0,0,1,.42,1.24l.13.91,0-1a2.23,2.23,0,0,1,.21-1.46c.22-.36.28-.4.6-.32a1.14,1.14,0,0,0,.66,0c.66-.24.85.44.4,1.44a1.88,1.88,0,0,0,.14,2c.33.58.37.74.25,1s-.09.34.34.78c.56.59.82.61,1.69.25a1.84,1.84,0,0,1,.65-.22,20.5,20.5,0,0,1-2.65,2.59c-.91.77-1.2,1-1.2.76,0-.7-1-.21-1.65.8a10.46,10.46,0,0,1-1,1.26,8,8,0,0,0-1,1.26,2.24,2.24,0,0,1-.39.61,9.9,9.9,0,0,0-.78,1.42c-1,2.13-1.3,4.15-.57,4.43.4.15.49-.16.19-.58s-.3-.4-.09-1.4A10.69,10.69,0,0,1,39.34,38a6.81,6.81,0,0,0,.46-1.07,1.64,1.64,0,0,1,.31-.49,5.5,5.5,0,0,0,.58-.91,3.2,3.2,0,0,1,.81-1,4.35,4.35,0,0,0,.84-.95c.38-.65,1.09-1.37,1.09-1.09a9.41,9.41,0,0,1-.35,1.32c-.25.83-.43,1.18-.64,1.3a4.54,4.54,0,0,0-.81.83,3.13,3.13,0,0,1-.78.75A3.59,3.59,0,0,0,40,37.88a3.35,3.35,0,0,0-.63,2c0,1.52-.4,2.68-.7,2.2-.11-.15-.13-.15-.21.06a.45.45,0,0,0,.57.54c.42-.14.7-1.14.74-2.67a3.11,3.11,0,0,1,.57-1.85,3.47,3.47,0,0,1,1-1.26,2.23,2.23,0,0,0,.71-.69,3.28,3.28,0,0,1,.74-.75,1.11,1.11,0,0,0,.54-.65,4.47,4.47,0,0,1,.74-2A30.47,30.47,0,0,0,47.16,30c1.25-1.24,1.54-2.29,1.43-5-.07-1.53-.29-3.05-.43-2.91a2.79,2.79,0,0,0,.1.82,14.07,14.07,0,0,1,0,4.63c-.41.94-1.54,1.31-2,.64-.23-.31-.26-.32-.27-.09a1.24,1.24,0,0,0,.21.59c.1.18,0,.08-.33-.24-.45-.49-.5-.59-.37-.87s.09-.36-.15-.66-.35-.76,0-1A4.35,4.35,0,0,0,46,24a1.25,1.25,0,0,1,.26-.56,1.44,1.44,0,0,0,.26-.76.85.85,0,0,1,.26-.66,1.31,1.31,0,0,0,.34-.61,1.18,1.18,0,0,1,.26-.54,1,1,0,0,0,0-1.14C47.26,19.62,47.25,19.65,47.29,19.9Z" style="fill:#0284c7"/><path d="M49.69,22.84c0,.19,0,.25.07.16a.86.86,0,0,0,0-.32C49.72,22.6,49.69,22.66,49.69,22.84Z" style="fill:#0284c7"/><path d="M11.43,23.9c-3.85.27-8.92,1.19-8.55,1.55a6,6,0,0,0,1.93-.26,69.18,69.18,0,0,1,8-1.06A18.67,18.67,0,0,0,15,23.87,12.76,12.76,0,0,0,11.43,23.9Z" style="fill:#0284c7"/><path d="M31.35,24.22c.11,0,1.34.17,2.73.31s3.38.38,4.42.52,2,.26,2.27.25h.39l-.39-.12a59.42,59.42,0,0,0-8.69-1C31.58,24.17,31.25,24.19,31.35,24.22Z" style="fill:#0284c7"/><path d="M45.39,26.25c-.13.32,0,.8.26.68s.16-1,0-1S45.46,26.09,45.39,26.25Z" style="fill:#0284c7"/><path d="M3.3,30.25c0,.37,2.82,1.41,5.46,2a56.45,56.45,0,0,0,5.82,1,12.45,12.45,0,0,0-2.32-.55c-4.61-.89-6.89-1.5-8.33-2.23C3.58,30.25,3.3,30.17,3.3,30.25Z" style="fill:#0284c7"/><path d="M42.26,31.41c-.46.07-2.06.17-3.57.26-6,.33-6.35.38-2.34.33s6.64-.23,6.95-.53S43.6,31.26,42.26,31.41Z" style="fill:#0284c7"/><path d="M48.76,32.58c-.37,1.57-2.09,5.74-2.3,5.55a.44.44,0,0,1,.09-.34c.08-.15.1-.27.08-.27a2.16,2.16,0,0,0-.52,1.19c0,.08,0,.11,0,.07s-.47.37-.87,1a4.72,4.72,0,0,1-.73,1c0-.05-.12,0-.25.12s-.23.3-.19.39c.17.43-4.51,4.27-4.91,4-.08,0-.1,0-.06,0s0,.18-.12.22-.16,0-.12-.05,0-.09-.12,0-.16.13-.13.19a7,7,0,0,1-1.79,1,38.52,38.52,0,0,1-6.26,2.27c-1.18.33-.76.36.65,0A26.49,26.49,0,0,0,37,46.82,20.51,20.51,0,0,0,45.28,40c.48-.72.48-.72.57-.36s.1.35.28.12a34,34,0,0,0,2.08-4.47A13.19,13.19,0,0,0,49,32C49,32,48.85,32.19,48.76,32.58Zm-4.29,8.24a.83.83,0,0,1-.22.22c-.21.17-.22.15,0,0S44.47,40.71,44.47,40.82Z" style="fill:#0284c7"/><path d="M7.33,39.86a30.36,30.36,0,0,0,6.74,6.2,23.08,23.08,0,0,0,7.61,3.2c.75.09.69.06-1.49-.64A27.31,27.31,0,0,1,8.5,40.86C7.17,39.38,6.5,38.8,7.33,39.86Z" style="fill:#0284c7"/><path d="M36.61,42.45a8.4,8.4,0,0,0-1.1.86,8.94,8.94,0,0,1-2,1.31,10.11,10.11,0,0,0-1.21.64,13.1,13.1,0,0,0,2.33-.91,5.8,5.8,0,0,0,1.24-.94,2.55,2.55,0,0,1,.73-.57c.29,0-1.21,1.43-1.83,1.74a8.32,8.32,0,0,1-1.26.52,2.35,2.35,0,0,0-.69.3c0,.16,1.33-.09,1.9-.34a5.23,5.23,0,0,0,2-1.59C37.39,42.57,37.39,42.12,36.61,42.45Z" style="fill:#0284c7"/><path d="M19,45.84a23.67,23.67,0,0,0,5,.35h2l-2.32-.1c-1.27-.06-2.81-.16-3.44-.24C18.85,45.67,18.39,45.67,19,45.84Z" style="fill:#0284c7"/><path d="M15.33,33.36h0s.15.42-2.58,0l-.91.87.11,0a.3.3,0,0,1,.24.37.31.31,0,0,1-.37.24l-.55-.12-.43.39h0a.31.31,0,0,1,.24.37.3.3,0,0,1-.37.24l-.51-.1A5.71,5.71,0,0,1,9,36.49s-.53-.11-.47-.42c0,0,1.72-2,2.4-3.07-2.75-.55-2.71-.74-2.71-.74s-.86,1-1.47.89l.78-1.44h0L7.4,30.09c.61.13,1,1.41,1,1.41s0-.19,2.79.41c-.2-1.24-1-3.78-1-3.78.06-.31.6-.19.6-.19a5.68,5.68,0,0,1,.79,1.28l.51.11a.3.3,0,0,1,.24.37.31.31,0,0,1-.37.24h0l.24.53.55.11a.32.32,0,0,1,.24.37.32.32,0,0,1-.37.25l-.11,0L13,32.33C15.64,33,15.33,33.36,15.33,33.36Z" style="fill:#0284c7"/><path d="M59.92,33.69a6.36,6.36,0,0,0,4.5,1.77,6.48,6.48,0,0,0,4.79-2c.16-.17.32-.35.47-.53l1.42.52a9.42,9.42,0,0,1-.88,1,8.07,8.07,0,0,1-11.58,0,8.49,8.49,0,0,1,0-11.83A8.09,8.09,0,0,1,69.5,22a8.81,8.81,0,0,1,.72.67l.25.27-1,1ZM68.48,23a6.37,6.37,0,0,0-4.06-1.37,6.45,6.45,0,0,0-4.77,2,7,7,0,0,0-.64,9Z" style="fill:#0284c7"/><path d="M83.94,21.54l-3.77,6.67,0,.07,0,.08,4.59,8.13H83.21L79.4,29.75l-3.82,6.74H74l4.6-8.13,0-.08,0-.07-3.77-6.67H76.4l3,5.28,3-5.28Z" style="fill:#0284c7"/><path d="M88.57,21.54h1.34v2.1a8.67,8.67,0,0,1,.85-1,8.08,8.08,0,0,1,11.57,0,8.49,8.49,0,0,1,0,11.83,8.05,8.05,0,0,1-11.57,0,8.75,8.75,0,0,1-.85-1V42.2H88.57Zm1.34,5.59V30a6.79,6.79,0,0,0,1.85,3.46,6.68,6.68,0,0,0,9.57,0,7,7,0,0,0,0-9.78,6.68,6.68,0,0,0-9.57,0A6.79,6.79,0,0,0,89.91,27.13Z" style="fill:#0284c7"/><path d="M111.7,33.69a6.36,6.36,0,0,0,4.5,1.77,6.46,6.46,0,0,0,4.78-2c.17-.17.33-.35.48-.53l1.41.52a8.45,8.45,0,0,1-.88,1,8.07,8.07,0,0,1-11.58,0A8.16,8.16,0,0,1,108,28.54a8.11,8.11,0,0,1,2.39-5.9A8.1,8.1,0,0,1,121.28,22a7.35,7.35,0,0,1,.71.67l.26.27-1,1ZM120.25,23a6.32,6.32,0,0,0-4-1.37,6.45,6.45,0,0,0-4.77,2,6.73,6.73,0,0,0-2,4.88,6.63,6.63,0,0,0,1.34,4.14Z" style="fill:#0284c7"/><path d="M128.25,24.87V36.49h-1.34v-15h1.34v1a5.8,5.8,0,0,1,4.26-1.86,5.66,5.66,0,0,1,4.22,1.66,5.92,5.92,0,0,1,1.67,4.19v10h-1.34V26.61a4.42,4.42,0,0,0-1.35-3.25,4.48,4.48,0,0,0-6.39,0A5.26,5.26,0,0,0,128.25,24.87Z" style="fill:#0284c7"/><path d="M147.35,28.8A10.89,10.89,0,0,1,145,27.19a3.5,3.5,0,0,1-1-2.53,3.57,3.57,0,0,1,1-2.55,3.36,3.36,0,0,1,2.48-1.06,3.24,3.24,0,0,1,2.41,1,3,3,0,0,1,.92,2.17v.08l-1.16.47a2.91,2.91,0,0,0-.71-1.73,1.92,1.92,0,0,0-1.46-.58,2.06,2.06,0,0,0-1.54.65,2.13,2.13,0,0,0-.64,1.57,2.16,2.16,0,0,0,.64,1.57,11.26,11.26,0,0,0,1.58,1.16,12.58,12.58,0,0,1,2.71,1.88,4.52,4.52,0,0,1,0,6.28,4.25,4.25,0,0,1-6.14,0,4,4,0,0,1-1.26-2.85l1.32-.35a3.08,3.08,0,0,0,.89,2.24,3,3,0,0,0,4.25,0,3.14,3.14,0,0,0,0-4.36A13,13,0,0,0,147.35,28.8Z" style="fill:#0284c7"/><path d="M157.65,16.64a1.28,1.28,0,0,1,.4,1,1.3,1.3,0,0,1-.4,1,1.32,1.32,0,0,1-1.89,0,1.34,1.34,0,0,1-.4-1,1.31,1.31,0,0,1,.4-1,1.32,1.32,0,0,1,1.89,0Zm-.27,4.9v15H156v-15Z" style="fill:#0284c7"/><path d="M164.69,21.54V15.18H166v6.36h3v1.37h-3V36.49h-1.34V22.91h-3V21.54Z" style="fill:#0284c7"/><path d="M166,21.54l3.34-.08-1.22-6.34c0-.15,0-.22.19-.2l1,.11,3.5,6.22,3-.1a2.27,2.27,0,0,1,1.82.8.51.51,0,0,1,0,.62,2.17,2.17,0,0,1-1.85.86l-3-.1-3.5,6.22-1,.11c-.17,0-.23-.05-.19-.2l1.24-6.38L166,22.91" style="fill:#0284c7;fill-rule:evenodd"/></svg>